<svg width="36" height="36" viewBox="0 0 36 36" fill="none" xmlns="http://www.w3.org/2000/svg">
<path d="M4.75537 11.1599L18.0004 18.8249L31.1553 11.2049" stroke="#CE0000" stroke-width="2" stroke-linecap="round" stroke-linejoin="round"/>
<path d="M18.0005 32.4151V18.8101" stroke="#CE0000" stroke-width="2" stroke-linecap="round" stroke-linejoin="round"/>
<path d="M14.8952 3.72L6.88518 8.17505C5.07018 9.18005 3.58521 11.7 3.58521 13.77V22.2451C3.58521 24.3151 5.07018 26.835 6.88518 27.84L14.8952 32.2951C16.6052 33.2401 19.4102 33.2401 21.1202 32.2951L29.1302 27.84C30.9452 26.835 32.4302 24.3151 32.4302 22.2451V13.77C32.4302 11.7 30.9452 9.18005 29.1302 8.17505L21.1202 3.72C19.3952 2.76 16.6052 2.76 14.8952 3.72Z" stroke="#CE0000" stroke-width="2" stroke-linecap="round" stroke-linejoin="round"/>
<path d="M25.5001 19.8602V14.3702L11.2651 6.15015" stroke="#CE0000" stroke-width="2" stroke-linecap="round" stroke-linejoin="round"/>
</svg>
