<svg width="36" height="36" viewBox="0 0 36 36" fill="none" xmlns="http://www.w3.org/2000/svg">
<path d="M33 22.5C33 28.305 28.305 33 22.5 33L24.075 30.375" stroke="#CE0000" stroke-width="2" stroke-linecap="round" stroke-linejoin="round"/>
<path d="M3 13.5C3 7.695 7.695 3 13.5 3L11.925 5.625" stroke="#CE0000" stroke-width="2" stroke-linecap="round" stroke-linejoin="round"/>
<path d="M20.5503 6.6748L26.5203 10.1248L32.4303 6.68982" stroke="#CE0000" stroke-width="2" stroke-linecap="round" stroke-linejoin="round"/>
<path d="M26.5203 16.2299V10.1099" stroke="#CE0000" stroke-width="2" stroke-linecap="round" stroke-linejoin="round"/>
<path d="M25.1101 3.315L21.5101 5.30993C20.7001 5.75993 20.0251 6.89992 20.0251 7.82992V11.64C20.0251 12.57 20.6851 13.71 21.5101 14.16L25.1101 16.155C25.8751 16.59 27.1351 16.59 27.9151 16.155L31.5151 14.16C32.3251 13.71 33.0001 12.57 33.0001 11.64V7.82992C33.0001 6.89992 32.3401 5.75993 31.5151 5.30993L27.9151 3.315C27.1501 2.895 25.8901 2.895 25.1101 3.315Z" stroke="#CE0000" stroke-width="2" stroke-linecap="round" stroke-linejoin="round"/>
<path d="M3.52515 23.1748L9.48015 26.6248L15.4051 23.1898" stroke="#CE0000" stroke-width="2" stroke-linecap="round" stroke-linejoin="round"/>
<path d="M9.47998 32.7299V26.6099" stroke="#CE0000" stroke-width="2" stroke-linecap="round" stroke-linejoin="round"/>
<path d="M8.085 19.815L4.48501 21.8099C3.67501 22.2599 3 23.3999 3 24.3299V28.14C3 29.07 3.66001 30.21 4.48501 30.66L8.085 32.655C8.85 33.09 10.11 33.09 10.89 32.655L14.49 30.66C15.3 30.21 15.975 29.07 15.975 28.14V24.3299C15.975 23.3999 15.315 22.2599 14.49 21.8099L10.89 19.815C10.11 19.395 8.85 19.395 8.085 19.815Z" stroke="#CE0000" stroke-width="2" stroke-linecap="round" stroke-linejoin="round"/>
</svg>
